<svg width="18" height="13" viewBox="0 0 18 13"  xmlns="http://www.w3.org/2000/svg">
<path d="M16.9175 5.86328C15.0659 1.96289 12.2671 0 8.51513 0C4.76122 0 1.96435 1.96289 0.112784 5.86523C0.0385169 6.02249 0 6.19425 0 6.36816C0 6.54208 0.0385169 6.71383 0.112784 6.87109C1.96435 10.7715 4.76318 12.7344 8.51513 12.7344C12.269 12.7344 15.0659 10.7715 16.9175 6.86914C17.0679 6.55273 17.0679 6.18555 16.9175 5.86328ZM8.51513 11.3281C5.36474 11.3281 3.0581 9.73047 1.43114 6.36719C3.0581 3.00391 5.36474 1.40625 8.51513 1.40625C11.6655 1.40625 13.9722 3.00391 15.5991 6.36719C13.9741 9.73047 11.6675 11.3281 8.51513 11.3281ZM8.43701 2.92969C6.53857 2.92969 4.9995 4.46875 4.9995 6.36719C4.9995 8.26562 6.53857 9.80469 8.43701 9.80469C10.3354 9.80469 11.8745 8.26562 11.8745 6.36719C11.8745 4.46875 10.3354 2.92969 8.43701 2.92969ZM8.43701 8.55469C7.22802 8.55469 6.24951 7.57617 6.24951 6.36719C6.24951 5.1582 7.22802 4.17969 8.43701 4.17969C9.64599 4.17969 10.6245 5.1582 10.6245 6.36719C10.6245 7.57617 9.64599 8.55469 8.43701 8.55469Z"/>
</svg>
